<?xml version="1.0" encoding="UTF-8"?>
<svg width="512" height="512" viewBox="0 0 512 512" fill="none" xmlns="http://www.w3.org/2000/svg">
  <rect width="512" height="512" fill="#1F4B3F"/>
  <path d="M256 64C185.6 64 128 121.6 128 192v160h256V192c0-70.4-57.6-128-128-128zm96 224H160V192c0-52.8 43.2-96 96-96s96 43.2 96 96v96z" fill="#C3935B"/>
  <path d="M384 352H128v32c0 70.4 57.6 128 128 128s128-57.6 128-128v-32zm-128 128c-52.8 0-96-43.2-96-96v-0.8h192V384c0 52.8-43.2 96-96 96z" fill="#C3935B"/>
  <path d="M256 160c-17.6 0-32 14.4-32 32v64c0 17.6 14.4 32 32 32s32-14.4 32-32v-64c0-17.6-14.4-32-32-32z" fill="#C3935B"/>
</svg>
